<svg width="32" height="27" viewBox="0 0 32 27" fill="none" xmlns="http://www.w3.org/2000/svg">
<path d="M25.4375 0H6.5625C2.94388 0 0 2.94388 0 6.5625V17.1216C0 20.7403 2.94388 23.6841 6.5625 23.6841H7.53638L9.81888 26.5798C9.90662 26.6911 10.0185 26.7811 10.146 26.843C10.2736 26.9049 10.4135 26.937 10.5552 26.937C10.697 26.937 10.8369 26.9049 10.9644 26.843C11.092 26.7811 11.2038 26.6911 11.2916 26.5798L13.574 23.6841H25.4375C29.0561 23.6841 32 20.7403 32 17.1216V6.5625C32 2.94388 29.0561 0 25.4375 0Z" fill="#6787F5"/>
<path d="M25.4375 0H16V23.6841H25.4375C29.0561 23.6841 32 20.7403 32 17.1216V6.5625C32 2.94388 29.0561 0 25.4375 0Z" fill="#38478A"/>
<path d="M32 7.70337H24.1174L29.9851 1.83569C28.8047 0.699687 27.2014 0 25.4375 0H23.8659L20.1401 3.72581V0H11.8601V3.72581L8.13425 0H6.5625C4.79856 0 3.19531 0.699687 2.01487 1.83569L7.88256 7.70337H0V15.9834H7.88256L2.23506 21.6306L2.01612 21.8496C3.19656 22.9851 4.79931 23.6841 6.5625 23.6841H7.53638L7.801 24.0198L11.7595 20.061L11.6953 23.6841H20.1399V19.9712L23.8406 23.6841H25.4375C27.1931 23.6841 28.7898 22.9912 29.9685 21.8645L29.7478 21.6428L24.1072 15.9834H32V7.70337Z" fill="white"/>
<path d="M32 7.70337H24.1174L29.9851 1.83569C28.8047 0.699687 27.2014 0 25.4375 0H23.8659L20.1401 3.72581V0H16V23.6841H20.1399V19.9713L23.8406 23.6841H25.4375C27.1931 23.6841 28.7898 22.9913 29.9685 21.8646L29.7478 21.6429L24.1072 15.9835H32V7.70337Z" fill="#C7D3ED"/>
<path d="M18.2649 9.57837V0H13.7351V9.57837H0V14.1084H13.7351L13.574 23.6841H18.2649V14.1084H32V9.57837H18.2649Z" fill="#FF337A"/>
<path d="M18.2649 9.57837V0H16V23.6841H18.2649V14.1084H32V9.57837H18.2649Z" fill="#D1005B"/>
<path d="M12.4849 8.32813V7.0025L5.55908 0.0766296C4.86157 0.184099 4.18617 0.404264 3.55933 0.728505L11.1592 8.32813H12.4849Z" fill="#FF337A"/>
<path d="M28.4406 0.728505C27.8138 0.40427 27.1384 0.184106 26.4409 0.0766296L19.5151 7.0025V8.32819H20.8408L28.4406 0.728505Z" fill="#D1005B"/>
<path d="M3.56107 22.9566C4.18814 23.2805 4.86366 23.5005 5.56125 23.6079L12.4849 16.6841V15.3584H11.1592L3.56107 22.9566Z" fill="#FF337A"/>
<path d="M19.5151 15.3584V16.688L26.4151 23.6112C27.1138 23.5064 27.7909 23.2886 28.4197 22.9665L20.8372 15.3584H19.5151Z" fill="#D1005B"/>
</svg>
